<?xml version="1.0" encoding="UTF-8"?>
<svg xmlns:xlink="http://www.w3.org/1999/xlink" xmlns="http://www.w3.org/2000/svg" width="202" height="202" viewBox="0 0 202 202" fill="none">
  <path d="M1 1H201V201H1V1Z" stroke="white" stroke-opacity="0.2" stroke-linecap="round"></path>
  <path d="M201 19V1H183" stroke="white" stroke-linecap="round" stroke-linejoin="round"></path>
  <path d="M1 19V1H19" stroke="white" stroke-linecap="round" stroke-linejoin="round"></path>
  <path d="M183 201H201V183" stroke="white" stroke-linecap="round" stroke-linejoin="round"></path>
  <path d="M1 183V201H19" stroke="white" stroke-linecap="round" stroke-linejoin="round"></path>
  <circle cx="183" cy="19" r="1" fill="white"></circle>
  <circle cx="19" cy="19" r="1" fill="white"></circle>
  <circle cx="19" cy="183" r="1" fill="white"></circle>
  <circle cx="183" cy="183" r="1" fill="white"></circle>
  <path fill-rule="evenodd" clip-rule="evenodd" d="M183.354 19.3536C183.549 19.1583 183.549 18.8417 183.354 18.6464C183.158 18.4512 182.842 18.4512 182.646 18.6464L101 100.293L19.3536 18.6464C19.1583 18.4512 18.8417 18.4512 18.6464 18.6464C18.4512 18.8417 18.4512 19.1583 18.6464 19.3536L100.293 101L18.6464 182.646C18.4512 182.842 18.4512 183.158 18.6464 183.354C18.8417 183.549 19.1583 183.549 19.3536 183.354L101 101.707L182.646 183.354C182.842 183.549 183.158 183.549 183.354 183.354C183.549 183.158 183.549 182.842 183.354 182.646L101.707 101L183.354 19.3536Z" fill="white" fill-opacity="0.2"></path>
  <circle cx="101" cy="101" r="65" fill="white"></circle>
  <circle cx="101" cy="101" r="64.5" stroke="white" stroke-opacity="0.2"></circle>
  <path fill-rule="evenodd" clip-rule="evenodd" d="M131.379 128.986C131.368 128.994 131.358 129.001 131.348 129.01L131.076 128.684C125.47 133.295 118.349 135.789 111 135.789C102.591 135.789 94.7119 132.614 88.803 126.794C82.8942 121.05 79.636 113.34 79.636 105.176C79.636 98.9029 81.5302 92.7803 85.2421 87.6403C88.8789 82.5759 93.8789 78.7967 99.7877 76.6048L99.5609 76C93.5755 78.2677 88.4245 82.1225 84.7877 87.2626C81 92.5533 78.9547 98.7515 78.9547 105.176C78.9547 113.491 82.2881 121.352 88.3486 127.247C88.9185 127.802 89.5116 128.325 90.115 128.832L89.3333 129.742C95.318 134.806 103.045 137.603 111 137.603C118.803 137.603 126.303 134.882 132.288 130.045L131.379 128.986Z" fill="#0065F2"></path>
  <path fill-rule="evenodd" clip-rule="evenodd" d="M85.5447 86.2796C85.3937 85.7505 85.3179 85.2971 85.3179 84.768C85.3179 82.5004 86.8328 80.4591 89.5601 80.4591C90.1662 80.4591 90.6965 80.5348 91.1509 80.6861C91.6053 80.3084 92.1356 79.93 92.6658 79.628C91.757 79.0989 90.6965 78.7969 89.5601 78.7969C86.2267 78.7969 83.4237 81.4422 83.4237 84.768C83.4237 85.9019 83.8029 87.0357 84.3325 87.9425C84.4842 87.7161 84.6359 87.4891 84.7869 87.3377C85.0145 86.9593 85.3179 86.5823 85.5447 86.2796Z" fill="black"></path>
  <path fill-rule="evenodd" clip-rule="evenodd" d="M93.7275 80.3828C93.1972 80.6848 92.7428 80.9876 92.2884 81.3653C93.2731 82.1214 93.8033 83.4059 93.8033 84.7668C93.8033 87.0344 92.1367 88.9993 89.5612 88.9993C88.1214 88.9993 86.985 88.3946 86.2278 87.4121C86.0761 87.6392 85.9244 87.7905 85.7727 88.0169C85.5458 88.3196 85.319 88.6216 85.1666 88.9237C86.3037 89.9825 87.8186 90.6629 89.5612 90.6629C92.9697 90.6629 95.6976 88.0926 95.6976 84.7668C95.6976 83.0282 94.9397 81.441 93.7275 80.3828Z" fill="black"></path>
  <path fill-rule="evenodd" clip-rule="evenodd" d="M82.8947 100.188C82.8947 102.002 81.8341 103.589 80.2433 104.194V105.177V106.008C82.8188 105.328 84.7882 103.06 84.7882 100.188C84.7882 98.1473 83.6525 96.333 81.9858 95.1992C81.7583 95.804 81.6066 96.333 81.3797 96.8621C82.3644 97.6939 82.8947 98.9034 82.8947 100.188Z" fill="black"></path>
  <path fill-rule="evenodd" clip-rule="evenodd" d="M79.0297 104.496H78.6511C76.0756 104.496 74.3324 102.531 74.3324 100.188C74.3324 97.9962 75.8481 95.9556 78.6511 95.9556C79.2573 95.9556 79.8634 96.0306 80.3171 96.2576C80.4695 95.7279 80.6205 95.1995 80.8481 94.6704C80.1661 94.4433 79.4083 94.292 78.6511 94.292C75.242 94.292 72.5147 96.938 72.5147 100.188C72.5147 103.59 75.242 106.159 78.6511 106.159H79.0297C79.0297 105.857 78.9539 105.479 78.9539 105.177C78.9539 104.95 79.0297 104.723 79.0297 104.496Z" fill="black"></path>
  <path fill-rule="evenodd" clip-rule="evenodd" d="M83.0456 111.525C85.7728 111.525 87.2878 113.566 87.2878 115.758C87.2878 117.723 86.0762 119.461 84.182 119.915C84.4847 120.444 84.7881 120.898 85.0908 121.427C87.4395 120.596 89.182 118.479 89.182 115.758C89.182 112.508 86.3789 109.862 83.0456 109.862C82.2126 109.862 81.3789 110.014 80.6976 110.316C80.7728 110.845 80.8486 111.45 81.0003 111.979C81.6065 111.677 82.2878 111.525 83.0456 111.525Z" fill="black"></path>
  <path fill-rule="evenodd" clip-rule="evenodd" d="M78.8022 115.758C78.8022 114.624 79.1815 113.566 79.9386 112.735C79.7869 112.13 79.6359 111.526 79.56 110.921C77.9692 111.979 76.9087 113.793 76.9087 115.758C76.9087 119.16 79.6359 121.729 83.0451 121.729C83.2719 121.729 83.5754 121.729 83.8029 121.654C83.4995 121.125 83.1209 120.596 82.8175 120.067C80.3937 119.916 78.8022 118.102 78.8022 115.758Z" fill="black"></path>
  <path fill-rule="evenodd" clip-rule="evenodd" d="M112.819 110.089V116.967C112.819 118.555 112.288 120.066 110.243 120.066C108.197 120.066 107.667 118.555 107.667 116.967V110.089H105.773V117.345C105.773 119.839 107.364 121.729 110.243 121.729C113.122 121.729 114.712 119.839 114.712 117.345V110.089H112.819Z" fill="black"></path>
  <path fill-rule="evenodd" clip-rule="evenodd" d="M114.333 88.8495H119.485V90.4367H112.439V79.0234H114.333V88.8495Z" fill="black"></path>
  <path fill-rule="evenodd" clip-rule="evenodd" d="M51 94.5186H57.6667V96.1808H52.8935V98.9025H57.5908V100.565H52.8935V104.269H57.6667V105.932H51V94.5186Z" fill="black"></path>
  <path fill-rule="evenodd" clip-rule="evenodd" d="M88.6512 93.9141L96.5302 102.002V94.5188H98.4237V106.385L90.5448 98.4494V105.932H88.6512V93.9141Z" fill="black"></path>
  <path fill-rule="evenodd" clip-rule="evenodd" d="M135.622 94.5186H137.516V105.932H135.622V94.5186Z" fill="black"></path>
  <path fill-rule="evenodd" clip-rule="evenodd" d="M69.4088 111.752V114.473H73.4992V116.061H69.4088V121.502H67.5152V110.089H73.6516V111.752H69.4088Z" fill="black"></path>
  <path fill-rule="evenodd" clip-rule="evenodd" d="M76.985 86.1289H77.0608L78.8785 79.0239H80.6976L77.5153 90.8912L73.4999 82.3497L69.4853 90.8912L66.2278 79.0239H68.1214L69.9397 86.1289L73.4999 78.7969L76.985 86.1289Z" fill="black"></path>
  <path fill-rule="evenodd" clip-rule="evenodd" d="M120.773 98.8271H120.697L118.879 105.932H117.061L120.243 94.0654L124.258 102.682L128.273 94.0654L131.531 105.932H129.636L127.818 98.8271H127.742L124.258 106.235L120.773 98.8271Z" fill="black"></path>
  <path fill-rule="evenodd" clip-rule="evenodd" d="M121.757 114.397L119.939 121.502H118.045L121.227 109.635L125.318 118.176L129.333 109.635L132.514 121.502H130.621L128.802 114.397L125.318 121.729L121.757 114.397Z" fill="black"></path>
  <path fill-rule="evenodd" clip-rule="evenodd" d="M96.3034 110.089C97.364 110.089 98.5762 110.089 99.4851 110.618C100.47 111.147 101.076 112.281 101.076 113.339C101.076 115.002 99.9402 116.363 98.2728 116.513L101.91 121.502H99.7885L96.3793 116.665H95.0912V121.502H93.1976V110.089H96.3034ZM95.0912 115.153H95.9248C97.4398 115.153 99.2582 115.228 99.2582 113.415C99.2582 111.6 97.364 111.676 95.849 111.676H95.0912V115.153Z" fill="black"></path>
  <path fill-rule="evenodd" clip-rule="evenodd" d="M102.742 79.0234C103.803 79.0234 105.015 79.0234 105.924 79.5525C106.909 80.0816 107.439 81.2154 107.439 82.2736C107.439 83.9371 106.379 85.2973 104.636 85.448L108.348 90.4367H106.227L102.742 85.5994H101.53V90.4367H99.6364V79.0234H102.742ZM101.53 84.0878H102.364C103.879 84.0878 105.621 84.1635 105.621 82.3492C105.621 80.535 103.727 80.6113 102.288 80.6113H101.53V84.0878Z" fill="black"></path>
  <path fill-rule="evenodd" clip-rule="evenodd" d="M124.712 88.8495H125.773C128.273 88.8495 130.621 87.942 130.621 84.6919C130.621 81.3661 128.273 80.6107 125.773 80.6107H124.712V88.8495ZM122.818 79.0234H125.924C129.56 79.0234 132.515 80.7613 132.515 84.6919C132.515 88.6224 129.636 90.4367 125.924 90.4367H122.818V79.0234Z" fill="black"></path>
  <path fill-rule="evenodd" clip-rule="evenodd" d="M150.015 103.967C149.409 104.345 148.727 104.496 147.894 104.496C145.394 104.496 143.652 102.606 143.652 100.263C143.652 97.9962 145.167 95.9549 147.894 95.9549C148.727 95.9549 149.409 96.1063 150.015 96.4083L150.924 95.0481C150.091 94.5947 149.031 94.292 147.894 94.292C144.561 94.292 141.758 96.938 141.758 100.263C141.758 103.59 144.561 106.159 147.894 106.159C149.031 106.159 150.091 105.932 151 105.403L150.015 103.967Z" fill="black"></path>
  <path fill-rule="evenodd" clip-rule="evenodd" d="M69.485 103.967C68.8789 104.345 68.1969 104.496 67.4397 104.496C64.8635 104.496 63.121 102.606 63.121 100.263C63.121 97.9962 64.636 95.9549 67.4397 95.9549C68.1969 95.9549 68.8789 96.1063 69.485 96.4083L70.4697 95.0481C69.5608 94.5947 68.4996 94.292 67.4397 94.292C64.0305 94.292 61.3033 96.938 61.3033 100.263C61.3033 103.59 64.0305 106.159 67.4397 106.159C68.4996 106.159 69.5608 105.932 70.4697 105.403L69.485 103.967Z" fill="black"></path>
  <path fill-rule="evenodd" clip-rule="evenodd" d="M112.742 100.263C112.742 97.9955 111.227 95.9549 108.5 95.9549C105.697 95.9549 104.181 97.9955 104.181 100.263C104.181 102.606 105.924 104.496 108.5 104.496C111 104.496 112.742 102.606 112.742 100.263ZM114.636 100.263C114.636 103.589 111.833 106.159 108.5 106.159C105.091 106.159 102.364 103.589 102.364 100.263C102.364 96.9374 105.091 94.292 108.5 94.292C111.833 94.292 114.636 96.9374 114.636 100.263Z" fill="black"></path>
</svg>
